<svg xmlns="http://www.w3.org/2000/svg" viewBox="0 0 1200 268" width="1200" height="268"><style>@keyframes in{from{opacity:0;transform:translateY(8px)}to{opacity:1;transform:none}}.in{animation:in .6s ease-out both}</style><g class="in" style="animation-delay:0.0s"><g transform="translate(0 0)"><rect x=".5" y=".5" width="387" height="267" rx="8" fill="#0D1117" stroke="#30363D"/><rect x="28" y="28" width="44" height="44" rx="6" fill="#12261E"/><g transform="translate(39 39) scale(0.9166666666666666)" fill="none" stroke="#3FB950" stroke-width="2" stroke-linecap="round" stroke-linejoin="round"><path d="M5 19c1-3 3-5 3-5l2 2s-2 2-5 3z M9 15l6-6c2-2 5-3 6-3c0 1-1 4-3 6l-6 6z M14 6l4 4"/></g><text x="28" y="112" font-size="23" font-weight="700" fill="#E6EDF3" font-family="Georgia, Times New Roman, serif" text-anchor="start" xml:space="preserve" >Build it from scratch</text><text x="28" y="138" font-size="15" font-weight="400" fill="#9198A1" font-family="-apple-system, Segoe UI, Helvetica, Arial, sans-serif" text-anchor="start" xml:space="preserve" font-style="italic">You have an idea or a process to fix</text><g transform="translate(28 165) scale(0.75)" fill="none" stroke="#3FB950" stroke-width="2" stroke-linecap="round" stroke-linejoin="round"><path d="M5 12l4 4l10-10"/></g><text x="56" y="180" font-size="16" font-weight="400" fill="#E6EDF3" font-family="-apple-system, Segoe UI, Helvetica, Arial, sans-serif" text-anchor="start" xml:space="preserve" >Clear scope and price up front</text><g transform="translate(28 197) scale(0.75)" fill="none" stroke="#3FB950" stroke-width="2" stroke-linecap="round" stroke-linejoin="round"><path d="M5 12l4 4l10-10"/></g><text x="56" y="212" font-size="16" font-weight="400" fill="#E6EDF3" font-family="-apple-system, Segoe UI, Helvetica, Arial, sans-serif" text-anchor="start" xml:space="preserve" >Working software to try weekly</text><g transform="translate(28 229) scale(0.75)" fill="none" stroke="#3FB950" stroke-width="2" stroke-linecap="round" stroke-linejoin="round"><path d="M5 12l4 4l10-10"/></g><text x="56" y="244" font-size="16" font-weight="400" fill="#E6EDF3" font-family="-apple-system, Segoe UI, Helvetica, Arial, sans-serif" text-anchor="start" xml:space="preserve" >Handed over live, with guides</text></g></g><g class="in" style="animation-delay:0.1s"><g transform="translate(404 0)"><rect x=".5" y=".5" width="387" height="267" rx="8" fill="#0D1117" stroke="#30363D"/><rect x="28" y="28" width="44" height="44" rx="6" fill="#12261E"/><g transform="translate(39 39) scale(0.9166666666666666)" fill="none" stroke="#3FB950" stroke-width="2" stroke-linecap="round" stroke-linejoin="round"><path d="M9 11a4 4 0 1 0 0-8a4 4 0 0 0 0 8z M2 21v-1a6 6 0 0 1 12 0v1 M16 3.5a4 4 0 0 1 0 7 M22 21v-1a6 6 0 0 0-4-5.6"/></g><text x="28" y="112" font-size="23" font-weight="700" fill="#E6EDF3" font-family="Georgia, Times New Roman, serif" text-anchor="start" xml:space="preserve" >Join your team</text><text x="28" y="138" font-size="15" font-weight="400" fill="#9198A1" font-family="-apple-system, Segoe UI, Helvetica, Arial, sans-serif" text-anchor="start" xml:space="preserve" font-style="italic">You need another senior pair of hands</text><g transform="translate(28 165) scale(0.75)" fill="none" stroke="#3FB950" stroke-width="2" stroke-linecap="round" stroke-linejoin="round"><path d="M5 12l4 4l10-10"/></g><text x="56" y="180" font-size="16" font-weight="400" fill="#E6EDF3" font-family="-apple-system, Segoe UI, Helvetica, Arial, sans-serif" text-anchor="start" xml:space="preserve" >Works in your tools and sprints</text><g transform="translate(28 197) scale(0.75)" fill="none" stroke="#3FB950" stroke-width="2" stroke-linecap="round" stroke-linejoin="round"><path d="M5 12l4 4l10-10"/></g><text x="56" y="212" font-size="16" font-weight="400" fill="#E6EDF3" font-family="-apple-system, Segoe UI, Helvetica, Arial, sans-serif" text-anchor="start" xml:space="preserve" >Reviews, tests and docs included</text><g transform="translate(28 229) scale(0.75)" fill="none" stroke="#3FB950" stroke-width="2" stroke-linecap="round" stroke-linejoin="round"><path d="M5 12l4 4l10-10"/></g><text x="56" y="244" font-size="16" font-weight="400" fill="#E6EDF3" font-family="-apple-system, Segoe UI, Helvetica, Arial, sans-serif" text-anchor="start" xml:space="preserve" >Helps your juniors level up</text></g></g><g class="in" style="animation-delay:0.2s"><g transform="translate(808 0)"><rect x=".5" y=".5" width="387" height="267" rx="8" fill="#0D1117" stroke="#30363D"/><rect x="28" y="28" width="44" height="44" rx="6" fill="#12261E"/><g transform="translate(39 39) scale(0.9166666666666666)" fill="none" stroke="#3FB950" stroke-width="2" stroke-linecap="round" stroke-linejoin="round"><path d="M14.7 6.3a4 4 0 0 0 5 5L22 14l-8 8l-2.3-2.3a4 4 0 0 0-5-5L4 12l8-8z"/></g><text x="28" y="112" font-size="23" font-weight="700" fill="#E6EDF3" font-family="Georgia, Times New Roman, serif" text-anchor="start" xml:space="preserve" >Rescue or upgrade</text><text x="28" y="138" font-size="15" font-weight="400" fill="#9198A1" font-family="-apple-system, Segoe UI, Helvetica, Arial, sans-serif" text-anchor="start" xml:space="preserve" font-style="italic">Your code is old, slow or stuck</text><g transform="translate(28 165) scale(0.75)" fill="none" stroke="#3FB950" stroke-width="2" stroke-linecap="round" stroke-linejoin="round"><path d="M5 12l4 4l10-10"/></g><text x="56" y="180" font-size="16" font-weight="400" fill="#E6EDF3" font-family="-apple-system, Segoe UI, Helvetica, Arial, sans-serif" text-anchor="start" xml:space="preserve" >An honest health check first</text><g transform="translate(28 197) scale(0.75)" fill="none" stroke="#3FB950" stroke-width="2" stroke-linecap="round" stroke-linejoin="round"><path d="M5 12l4 4l10-10"/></g><text x="56" y="212" font-size="16" font-weight="400" fill="#E6EDF3" font-family="-apple-system, Segoe UI, Helvetica, Arial, sans-serif" text-anchor="start" xml:space="preserve" >Upgrades in small, safe steps</text><g transform="translate(28 229) scale(0.75)" fill="none" stroke="#3FB950" stroke-width="2" stroke-linecap="round" stroke-linejoin="round"><path d="M5 12l4 4l10-10"/></g><text x="56" y="244" font-size="16" font-weight="400" fill="#E6EDF3" font-family="-apple-system, Segoe UI, Helvetica, Arial, sans-serif" text-anchor="start" xml:space="preserve" >Nothing goes down meanwhile</text></g></g></svg>
